<svg width="28" height="94" viewBox="0 0 28 94" fill="none" xmlns="http://www.w3.org/2000/svg">
<path d="M0.550859 7.485C0.550859 9.3 0.820859 10.74 1.37586 11.79C1.93086 12.825 2.62086 13.56 3.46086 13.965L3.95586 13.17C2.63586 12.345 1.69086 10.65 1.69086 7.485C1.69086 4.665 2.44086 2.76 3.95586 1.785L3.46086 0.99C2.62086 1.395 1.93086 2.13 1.37586 3.18C0.820859 4.215 0.550859 5.655 0.550859 7.485ZM8.00598 2.1L4.82598 3.15L5.11098 4.155L7.27098 3.48V12H8.44098V2.1H8.00598ZM13.6896 2.1L10.5096 3.15L10.7946 4.155L12.9546 3.48V12H14.1246V2.1H13.6896ZM23.2432 5.28C23.2432 3.375 21.7282 1.935 19.8832 1.935C18.0232 1.935 16.4932 3.375 16.4932 5.265C16.4932 7.08 17.9932 8.505 19.7182 8.505C20.0332 8.505 20.3182 8.46 20.5582 8.37L18.0382 12H19.4182L21.8782 8.43C22.2532 7.89 22.5082 7.5 22.6582 7.245C22.8232 6.99 22.9582 6.705 23.0632 6.375C23.1832 6.03 23.2432 5.67 23.2432 5.28ZM22.0882 5.25C22.0882 6.51 21.1432 7.515 19.8832 7.515C18.6232 7.515 17.6482 6.51 17.6482 5.25C17.6482 3.975 18.6232 3 19.8832 3C21.1432 3 22.0882 3.975 22.0882 5.25ZM24.9349 13.965C25.7599 13.56 26.4499 12.825 27.0049 11.79C27.5599 10.755 27.8299 9.315 27.8299 7.485C27.8299 5.655 27.5599 4.215 27.0049 3.18C26.4499 2.13 25.7599 1.395 24.9349 0.99L24.4249 1.785C25.9399 2.775 26.7049 4.68 26.7049 7.485C26.7049 10.65 25.7449 12.345 24.4249 13.17L24.9349 13.965ZM3.24617 47.485C3.24617 49.3 3.51617 50.74 4.07117 51.79C4.62617 52.825 5.31617 53.56 6.15617 53.965L6.65117 53.17C5.33117 52.345 4.38617 50.65 4.38617 47.485C4.38617 44.665 5.13617 42.76 6.65117 41.785L6.15617 40.99C5.31617 41.395 4.62617 42.13 4.07117 43.18C3.51617 44.215 3.24617 45.655 3.24617 47.485ZM14.8713 49.48C14.8713 48.295 14.0913 47.395 12.5163 46.81C13.7763 46.255 14.4063 45.46 14.4063 44.395C14.4063 43.63 14.1213 43.03 13.5363 42.595C12.9663 42.16 12.2613 41.935 11.4063 41.935C10.5363 41.935 9.81629 42.16 9.23129 42.595C8.66129 43.03 8.37629 43.63 8.37629 44.395C8.37629 45.52 9.06629 46.27 10.2663 46.825C8.69129 47.38 7.91129 48.25 7.91129 49.465C7.91129 51.07 9.32129 52.165 11.4063 52.165C13.4913 52.165 14.8713 51.07 14.8713 49.48ZM11.3913 46.27C10.1313 45.745 9.53129 45.28 9.53129 44.44C9.53129 43.495 10.3113 42.94 11.4063 42.94C12.4863 42.94 13.2513 43.495 13.2513 44.44C13.2513 45.295 12.6513 45.775 11.3913 46.27ZM13.6863 49.435C13.6863 50.47 12.8613 51.16 11.4063 51.16C9.95129 51.16 9.09629 50.47 9.09629 49.435C9.09629 48.415 9.89129 47.905 11.4063 47.365C12.9063 47.905 13.6863 48.4 13.6863 49.435ZM23.2432 48.835C23.2432 47.02 21.7732 45.595 20.0182 45.595C19.7032 45.595 19.4332 45.64 19.1932 45.73L21.7132 42.1H20.3182L17.8582 45.67C17.7982 45.745 17.7532 45.85 17.6482 45.97C17.2432 46.555 16.9582 47.05 16.7632 47.455C16.5832 47.86 16.4932 48.31 16.4932 48.82C16.4932 50.725 18.0082 52.165 19.8682 52.165C21.7432 52.165 23.2432 50.725 23.2432 48.835ZM22.0882 48.835C22.0882 50.095 21.1132 51.1 19.8682 51.1C18.6232 51.1 17.6482 50.095 17.6482 48.835C17.6482 47.59 18.6232 46.585 19.8682 46.585C21.1132 46.585 22.0882 47.59 22.0882 48.835ZM24.9349 53.965C25.7599 53.56 26.4499 52.825 27.0049 51.79C27.5599 50.755 27.8299 49.315 27.8299 47.485C27.8299 45.655 27.5599 44.215 27.0049 43.18C26.4499 42.13 25.7599 41.395 24.9349 40.99L24.4249 41.785C25.9399 42.775 26.7049 44.68 26.7049 47.485C26.7049 50.65 25.7449 52.345 24.4249 53.17L24.9349 53.965ZM4.44734 87.485C4.44734 89.3 4.71734 90.74 5.27234 91.79C5.82734 92.825 6.51734 93.56 7.35734 93.965L7.85234 93.17C6.53234 92.345 5.58734 90.65 5.58734 87.485C5.58734 84.665 6.33734 82.76 7.85234 81.785L7.35734 80.99C6.51734 81.395 5.82734 82.13 5.27234 83.18C4.71734 84.215 4.44734 85.655 4.44734 87.485ZM8.79746 82.1V83.15H13.8375L9.12746 92H10.4025L15.4125 82.445V82.1H8.79746ZM23.133 89.48C23.133 88.295 22.353 87.395 20.778 86.81C22.038 86.255 22.668 85.46 22.668 84.395C22.668 83.63 22.383 83.03 21.798 82.595C21.228 82.16 20.523 81.935 19.668 81.935C18.798 81.935 18.078 82.16 17.493 82.595C16.923 83.03 16.638 83.63 16.638 84.395C16.638 85.52 17.328 86.27 18.528 86.825C16.953 87.38 16.173 88.25 16.173 89.465C16.173 91.07 17.583 92.165 19.668 92.165C21.753 92.165 23.133 91.07 23.133 89.48ZM19.653 86.27C18.393 85.745 17.793 85.28 17.793 84.44C17.793 83.495 18.573 82.94 19.668 82.94C20.748 82.94 21.513 83.495 21.513 84.44C21.513 85.295 20.913 85.775 19.653 86.27ZM21.948 89.435C21.948 90.47 21.123 91.16 19.668 91.16C18.213 91.16 17.358 90.47 17.358 89.435C17.358 88.415 18.153 87.905 19.668 87.365C21.168 87.905 21.948 88.4 21.948 89.435ZM24.9349 93.965C25.7599 93.56 26.4499 92.825 27.0049 91.79C27.5599 90.755 27.8299 89.315 27.8299 87.485C27.8299 85.655 27.5599 84.215 27.0049 83.18C26.4499 82.13 25.7599 81.395 24.9349 80.99L24.4249 81.785C25.9399 82.775 26.7049 84.68 26.7049 87.485C26.7049 90.65 25.7449 92.345 24.4249 93.17L24.9349 93.965Z" fill="#3D3D3D"/>
</svg>
