<svg width="26" height="334" viewBox="0 0 26 334" fill="none" xmlns="http://www.w3.org/2000/svg">
<path d="M0.598125 7.455C0.598125 10.95 1.94813 13.125 3.86813 13.98L4.66313 12.765C3.28313 11.85 2.36813 10.275 2.36813 7.455C2.36813 4.62 3.28313 3.045 4.66313 2.13L3.86813 0.915C1.94813 1.77 0.598125 3.93 0.598125 7.455ZM12.6166 8.76C12.6166 7.98 12.3916 7.32 11.9266 6.795C11.4616 6.27 10.9066 5.91 10.2316 5.73L12.4216 2.64V2.1H6.04664V3.93H9.34664L7.27664 6.825V7.35H8.52164C9.84164 7.35 10.5466 7.86 10.5466 8.775C10.5466 9.72 9.82664 10.305 8.82164 10.305C7.90664 10.305 7.29164 9.84 6.69164 8.94L5.28164 9.93C5.95664 11.295 7.24664 12.18 8.88164 12.18C10.9366 12.18 12.6166 10.755 12.6166 8.76ZM20.8491 8.76C20.8491 7.98 20.6241 7.32 20.1591 6.795C19.6941 6.27 19.1391 5.91 18.4641 5.73L20.6541 2.64V2.1H14.2791V3.93H17.5791L15.5091 6.825V7.35H16.7541C18.0741 7.35 18.7791 7.86 18.7791 8.775C18.7791 9.72 18.0591 10.305 17.0541 10.305C16.1391 10.305 15.5241 9.84 14.9241 8.94L13.5141 9.93C14.1891 11.295 15.4791 12.18 17.1141 12.18C19.1691 12.18 20.8491 10.755 20.8491 8.76ZM22.7215 13.98C23.6665 13.545 24.4465 12.795 25.0615 11.715C25.6765 10.62 25.9765 9.21 25.9765 7.455C25.9765 5.7 25.6765 4.275 25.0615 3.195C24.4465 2.1 23.6665 1.35 22.7215 0.915L21.9115 2.13C23.3065 3.045 24.2215 4.62 24.2215 7.455C24.2215 10.275 23.2915 11.85 21.9115 12.765L22.7215 13.98Z" fill="#46A358"/>
<path d="M4.10262 47.485C4.10262 49.3 4.37262 50.74 4.92762 51.79C5.48262 52.825 6.17262 53.56 7.01262 53.965L7.50762 53.17C6.18762 52.345 5.24262 50.65 5.24262 47.485C5.24262 44.665 5.99262 42.76 7.50762 41.785L7.01262 40.99C6.17262 41.395 5.48262 42.13 4.92762 43.18C4.37262 44.215 4.10262 45.655 4.10262 47.485ZM11.5577 42.1L8.37773 43.15L8.66273 44.155L10.8227 43.48V52H11.9927V42.1H11.5577ZM16.5363 50.95L18.7263 48.64C19.6263 47.695 20.1363 47.095 20.5113 46.255C20.7063 45.835 20.7963 45.4 20.7963 44.935C20.7963 43.255 19.4913 41.935 17.6763 41.935C15.7413 41.935 14.4813 43.435 14.4813 45.01C14.4813 45.325 14.5113 45.61 14.5863 45.88H15.7863C15.7263 45.61 15.6963 45.34 15.6963 45.055C15.6963 44.5 15.8763 44.02 16.2363 43.615C16.5963 43.21 17.0763 43.015 17.6763 43.015C18.8313 43.015 19.5813 43.9 19.5813 44.995C19.5813 45.94 19.0413 46.69 17.8413 47.95L14.3163 51.7V52H21.2013V50.95H16.5363ZM22.9349 53.965C23.7599 53.56 24.4499 52.825 25.0049 51.79C25.5599 50.755 25.8299 49.315 25.8299 47.485C25.8299 45.655 25.5599 44.215 25.0049 43.18C24.4499 42.13 23.7599 41.395 22.9349 40.99L22.4249 41.785C23.9399 42.775 24.7049 44.68 24.7049 47.485C24.7049 50.65 23.7449 52.345 22.4249 53.17L22.9349 53.965ZM1.8907 87.485C1.8907 89.3 2.1607 90.74 2.7157 91.79C3.2707 92.825 3.9607 93.56 4.8007 93.965L5.2957 93.17C3.9757 92.345 3.0307 90.65 3.0307 87.485C3.0307 84.665 3.7807 82.76 5.2957 81.785L4.8007 80.99C3.9607 81.395 3.2707 82.13 2.7157 83.18C2.1607 84.215 1.8907 85.655 1.8907 87.485ZM12.9229 88.835C12.9229 87.02 11.4529 85.595 9.69785 85.595C9.38285 85.595 9.11285 85.64 8.87285 85.73L11.3929 82.1H9.99785L7.53785 85.67C7.47785 85.745 7.43285 85.85 7.32785 85.97C6.92285 86.555 6.63785 87.05 6.44285 87.455C6.26285 87.86 6.17285 88.31 6.17285 88.82C6.17285 90.725 7.68785 92.165 9.54785 92.165C11.4229 92.165 12.9229 90.725 12.9229 88.835ZM11.7679 88.835C11.7679 90.095 10.7929 91.1 9.54785 91.1C8.30285 91.1 7.32785 90.095 7.32785 88.835C7.32785 87.59 8.30285 86.585 9.54785 86.585C10.7929 86.585 11.7679 87.59 11.7679 88.835ZM21.1996 88.865C21.1996 86.825 19.6396 85.805 17.8096 85.805C17.3296 85.805 16.8646 85.85 16.3996 85.925V83.15H20.6446V82.1H15.2296V86.825H17.4646C19.0846 86.825 19.9846 87.575 19.9846 88.88C19.9846 90.2 19.0096 91.085 17.6746 91.085C16.4896 91.085 15.6946 90.47 15.0796 89.525L14.2696 90.125C14.9446 91.325 16.1146 92.165 17.6896 92.165C19.5496 92.165 21.1996 90.86 21.1996 88.865ZM22.9349 93.965C23.7599 93.56 24.4499 92.825 25.0049 91.79C25.5599 90.755 25.8299 89.315 25.8299 87.485C25.8299 85.655 25.5599 84.215 25.0049 83.18C24.4499 82.13 23.7599 81.395 22.9349 80.99L22.4249 81.785C23.9399 82.775 24.7049 84.68 24.7049 87.485C24.7049 90.65 23.7449 92.345 22.4249 93.17L22.9349 93.965ZM1.84676 127.485C1.84676 129.3 2.11676 130.74 2.67176 131.79C3.22676 132.825 3.91676 133.56 4.75676 133.965L5.25176 133.17C3.93176 132.345 2.98676 130.65 2.98676 127.485C2.98676 124.665 3.73676 122.76 5.25176 121.785L4.75676 120.99C3.91676 121.395 3.22676 122.13 2.67176 123.18C2.11676 124.215 1.84676 125.655 1.84676 127.485ZM12.9319 128.865C12.9319 127.02 11.5519 125.97 10.0519 125.82L12.6769 122.445V122.1H6.73688V123.18H10.8319L8.23688 126.495V126.84H9.21188C10.8169 126.84 11.7169 127.605 11.7169 128.88C11.7169 130.2 10.7719 131.085 9.40688 131.085C8.28188 131.085 7.53188 130.47 6.88688 129.525L6.06188 130.11C6.72188 131.31 7.90688 132.165 9.42188 132.165C11.2969 132.165 12.9319 130.86 12.9319 128.865ZM21.2432 125.28C21.2432 123.375 19.7282 121.935 17.8832 121.935C16.0232 121.935 14.4932 123.375 14.4932 125.265C14.4932 127.08 15.9932 128.505 17.7182 128.505C18.0332 128.505 18.3182 128.46 18.5582 128.37L16.0382 132H17.4182L19.8782 128.43C20.2532 127.89 20.5082 127.5 20.6582 127.245C20.8232 126.99 20.9582 126.705 21.0632 126.375C21.1832 126.03 21.2432 125.67 21.2432 125.28ZM20.0882 125.25C20.0882 126.51 19.1432 127.515 17.8832 127.515C16.6232 127.515 15.6482 126.51 15.6482 125.25C15.6482 123.975 16.6232 123 17.8832 123C19.1432 123 20.0882 123.975 20.0882 125.25ZM22.9349 133.965C23.7599 133.56 24.4499 132.825 25.0049 131.79C25.5599 130.755 25.8299 129.315 25.8299 127.485C25.8299 125.655 25.5599 124.215 25.0049 123.18C24.4499 122.13 23.7599 121.395 22.9349 120.99L22.4249 121.785C23.9399 122.775 24.7049 124.68 24.7049 127.485C24.7049 130.65 23.7449 132.345 22.4249 133.17L22.9349 133.965ZM1.71492 167.485C1.71492 169.3 1.98492 170.74 2.53992 171.79C3.09492 172.825 3.78492 173.56 4.62492 173.965L5.11992 173.17C3.79992 172.345 2.85492 170.65 2.85492 167.485C2.85492 164.665 3.60492 162.76 5.11992 161.785L4.62492 160.99C3.78492 161.395 3.09492 162.13 2.53992 163.18C1.98492 164.215 1.71492 165.655 1.71492 167.485ZM8.46504 170.95L10.655 168.64C11.555 167.695 12.065 167.095 12.44 166.255C12.635 165.835 12.725 165.4 12.725 164.935C12.725 163.255 11.42 161.935 9.60504 161.935C7.67004 161.935 6.41004 163.435 6.41004 165.01C6.41004 165.325 6.44004 165.61 6.51504 165.88H7.71504C7.65504 165.61 7.62504 165.34 7.62504 165.055C7.62504 164.5 7.80504 164.02 8.16504 163.615C8.52504 163.21 9.00504 163.015 9.60504 163.015C10.76 163.015 11.51 163.9 11.51 164.995C11.51 165.94 10.97 166.69 9.77004 167.95L6.24504 171.7V172H13.13V170.95H8.46504ZM21.1936 168.865C21.1936 167.02 19.8136 165.97 18.3136 165.82L20.9386 162.445V162.1H14.9986V163.18H19.0936L16.4986 166.495V166.84H17.4736C19.0786 166.84 19.9786 167.605 19.9786 168.88C19.9786 170.2 19.0336 171.085 17.6686 171.085C16.5436 171.085 15.7936 170.47 15.1486 169.525L14.3236 170.11C14.9836 171.31 16.1686 172.165 17.6836 172.165C19.5586 172.165 21.1936 170.86 21.1936 168.865ZM22.9349 173.965C23.7599 173.56 24.4499 172.825 25.0049 171.79C25.5599 170.755 25.8299 169.315 25.8299 167.485C25.8299 165.655 25.5599 164.215 25.0049 163.18C24.4499 162.13 23.7599 161.395 22.9349 160.99L22.4249 161.785C23.9399 162.775 24.7049 164.68 24.7049 167.485C24.7049 170.65 23.7449 172.345 22.4249 173.17L22.9349 173.965ZM4.98152 207.485C4.98152 209.3 5.25152 210.74 5.80652 211.79C6.36152 212.825 7.05152 213.56 7.89152 213.965L8.38652 213.17C7.06652 212.345 6.12152 210.65 6.12152 207.485C6.12152 204.665 6.87152 202.76 8.38652 201.785L7.89152 200.99C7.05152 201.395 6.36152 202.13 5.80652 203.18C5.25152 204.215 4.98152 205.655 4.98152 207.485ZM12.4366 202.1L9.25664 203.15L9.54164 204.155L11.7016 203.48V212H12.8716V202.1H12.4366ZM15.0152 202.1V203.15H20.0552L15.3452 212H16.6202L21.6302 202.445V202.1H15.0152ZM22.9349 213.965C23.7599 213.56 24.4499 212.825 25.0049 211.79C25.5599 210.755 25.8299 209.315 25.8299 207.485C25.8299 205.655 25.5599 204.215 25.0049 203.18C24.4499 202.13 23.7599 201.395 22.9349 200.99L22.4249 201.785C23.9399 202.775 24.7049 204.68 24.7049 207.485C24.7049 210.65 23.7449 212.345 22.4249 213.17L22.9349 213.965ZM4.23445 247.485C4.23445 249.3 4.50445 250.74 5.05945 251.79C5.61445 252.825 6.30445 253.56 7.14445 253.965L7.63945 253.17C6.31945 252.345 5.37445 250.65 5.37445 247.485C5.37445 244.665 6.12445 242.76 7.63945 241.785L7.14445 240.99C6.30445 241.395 5.61445 242.13 5.05945 243.18C4.50445 244.215 4.23445 245.655 4.23445 247.485ZM11.6896 242.1L8.50957 243.15L8.79457 244.155L10.9546 243.48V252H12.1246V242.1H11.6896ZM21.2432 245.28C21.2432 243.375 19.7282 241.935 17.8832 241.935C16.0232 241.935 14.4932 243.375 14.4932 245.265C14.4932 247.08 15.9932 248.505 17.7182 248.505C18.0332 248.505 18.3182 248.46 18.5582 248.37L16.0382 252H17.4182L19.8782 248.43C20.2532 247.89 20.5082 247.5 20.6582 247.245C20.8232 246.99 20.9582 246.705 21.0632 246.375C21.1832 246.03 21.2432 245.67 21.2432 245.28ZM20.0882 245.25C20.0882 246.51 19.1432 247.515 17.8832 247.515C16.6232 247.515 15.6482 246.51 15.6482 245.25C15.6482 243.975 16.6232 243 17.8832 243C19.1432 243 20.0882 243.975 20.0882 245.25ZM22.9349 253.965C23.7599 253.56 24.4499 252.825 25.0049 251.79C25.5599 250.755 25.8299 249.315 25.8299 247.485C25.8299 245.655 25.5599 244.215 25.0049 243.18C24.4499 242.13 23.7599 241.395 22.9349 240.99L22.4249 241.785C23.9399 242.775 24.7049 244.68 24.7049 247.485C24.7049 250.65 23.7449 252.345 22.4249 253.17L22.9349 253.965ZM4.42488 287.485C4.42488 289.3 4.69488 290.74 5.24988 291.79C5.80488 292.825 6.49488 293.56 7.33488 293.965L7.82988 293.17C6.50988 292.345 5.56488 290.65 5.56488 287.485C5.56488 284.665 6.31488 282.76 7.82988 281.785L7.33488 280.99C6.49488 281.395 5.80488 282.13 5.24988 283.18C4.69488 284.215 4.42488 285.655 4.42488 287.485ZM11.88 282.1L8.7 283.15L8.985 284.155L11.145 283.48V292H12.315V282.1H11.88ZM21.1936 288.865C21.1936 287.02 19.8136 285.97 18.3136 285.82L20.9386 282.445V282.1H14.9986V283.18H19.0936L16.4986 286.495V286.84H17.4736C19.0786 286.84 19.9786 287.605 19.9786 288.88C19.9786 290.2 19.0336 291.085 17.6686 291.085C16.5436 291.085 15.7936 290.47 15.1486 289.525L14.3236 290.11C14.9836 291.31 16.1686 292.165 17.6836 292.165C19.5586 292.165 21.1936 290.86 21.1936 288.865ZM22.9349 293.965C23.7599 293.56 24.4499 292.825 25.0049 291.79C25.5599 290.755 25.8299 289.315 25.8299 287.485C25.8299 285.655 25.5599 284.215 25.0049 283.18C24.4499 282.13 23.7599 281.395 22.9349 280.99L22.4249 281.785C23.9399 282.775 24.7049 284.68 24.7049 287.485C24.7049 290.65 23.7449 292.345 22.4249 293.17L22.9349 293.965ZM3.8243 327.485C3.8243 329.3 4.0943 330.74 4.6493 331.79C5.2043 332.825 5.8943 333.56 6.7343 333.965L7.2293 333.17C5.9093 332.345 4.9643 330.65 4.9643 327.485C4.9643 324.665 5.7143 322.76 7.2293 321.785L6.7343 320.99C5.8943 321.395 5.2043 322.13 4.6493 323.18C4.0943 324.215 3.8243 325.655 3.8243 327.485ZM11.2794 322.1L8.09941 323.15L8.38441 324.155L10.5444 323.48V332H11.7144V322.1H11.2794ZM21.133 329.48C21.133 328.295 20.353 327.395 18.778 326.81C20.038 326.255 20.668 325.46 20.668 324.395C20.668 323.63 20.383 323.03 19.798 322.595C19.228 322.16 18.523 321.935 17.668 321.935C16.798 321.935 16.078 322.16 15.493 322.595C14.923 323.03 14.638 323.63 14.638 324.395C14.638 325.52 15.328 326.27 16.528 326.825C14.953 327.38 14.173 328.25 14.173 329.465C14.173 331.07 15.583 332.165 17.668 332.165C19.753 332.165 21.133 331.07 21.133 329.48ZM17.653 326.27C16.393 325.745 15.793 325.28 15.793 324.44C15.793 323.495 16.573 322.94 17.668 322.94C18.748 322.94 19.513 323.495 19.513 324.44C19.513 325.295 18.913 325.775 17.653 326.27ZM19.948 329.435C19.948 330.47 19.123 331.16 17.668 331.16C16.213 331.16 15.358 330.47 15.358 329.435C15.358 328.415 16.153 327.905 17.668 327.365C19.168 327.905 19.948 328.4 19.948 329.435ZM22.9349 333.965C23.7599 333.56 24.4499 332.825 25.0049 331.79C25.5599 330.755 25.8299 329.315 25.8299 327.485C25.8299 325.655 25.5599 324.215 25.0049 323.18C24.4499 322.13 23.7599 321.395 22.9349 320.99L22.4249 321.785C23.9399 322.775 24.7049 324.68 24.7049 327.485C24.7049 330.65 23.7449 332.345 22.4249 333.17L22.9349 333.965Z" fill="#3D3D3D"/>
</svg>
