<svg width="91" height="333" viewBox="0 0 91 333" fill="none" xmlns="http://www.w3.org/2000/svg">
<path d="M1.14 12H3.165V7.725H7.545V12H9.57V2.1H7.545V5.895H3.165V2.1H1.14V12ZM11.2051 8.28C11.1601 10.395 12.9901 12.21 15.1651 12.165C17.3401 12.21 19.2151 10.395 19.1701 8.28C19.2151 6.165 17.3551 4.38 15.1801 4.41C13.0051 4.365 11.1601 6.165 11.2051 8.28ZM17.1001 8.295C17.1001 9.45 16.2751 10.305 15.1801 10.305C14.0551 10.305 13.2601 9.45 13.2601 8.295C13.2601 7.11 14.0551 6.255 15.1801 6.255C16.2751 6.255 17.1001 7.14 17.1001 8.295ZM20.6761 8.73C20.6761 10.8 22.1311 12.18 24.1111 12.18C26.0461 12.18 27.5161 10.8 27.5161 8.73V4.575H25.4911V8.895C25.4911 9.75 24.8911 10.32 24.1111 10.32C23.2861 10.32 22.7011 9.75 22.7011 8.895V4.575H20.6761V8.73ZM28.7773 10.74C29.4523 11.64 30.5473 12.18 31.8523 12.18C32.6923 12.18 33.3823 11.97 33.9223 11.55C34.4773 11.13 34.7473 10.545 34.7473 9.81C34.7473 8.715 34.1023 8.13 32.6623 7.545L31.9423 7.245C31.3573 7.005 31.1623 6.87 31.1623 6.585C31.1623 6.24 31.4623 6.06 31.9573 6.06C32.5723 6.06 33.1273 6.3 33.6223 6.765L34.6423 5.52C33.9673 4.785 33.0823 4.41 31.9723 4.41C30.3523 4.41 29.2423 5.235 29.2423 6.63C29.2423 7.725 29.9023 8.34 31.2673 8.895L32.0623 9.225C32.6173 9.465 32.8273 9.585 32.8273 9.9C32.8273 10.305 32.4223 10.515 31.8823 10.515C31.1473 10.515 30.4423 10.185 29.7973 9.51L28.7773 10.74ZM43.1034 8.97C43.1934 8.595 43.2384 8.22 43.2384 7.86C43.2384 5.925 41.7984 4.41 39.7434 4.41C37.5984 4.365 35.8134 6.15 35.8584 8.295C35.8134 10.44 37.6284 12.225 39.9234 12.18C41.0184 12.18 42.0084 11.805 42.8934 11.07L42.0534 9.69C41.4084 10.185 40.7184 10.44 39.9834 10.44C38.9034 10.44 38.1384 9.915 37.8984 8.97H43.1034ZM37.8984 7.545C38.1234 6.63 38.8134 6.045 39.6684 6.045C40.5534 6.045 41.2584 6.63 41.2734 7.545H37.8984ZM49.1576 12H51.1826V8.505H52.8776C54.9476 8.505 56.4476 7.185 56.4476 5.295C56.4476 3.39 54.9476 2.1 52.8776 2.1H49.1576V12ZM51.1826 6.735V3.885H52.8776C53.7926 3.885 54.3776 4.455 54.3776 5.295C54.3776 6.15 53.8226 6.735 52.8776 6.735H51.1826ZM57.9288 12H59.9538V0.749999H57.9288V12ZM68.1821 7.59C68.1821 5.535 66.9371 4.41 65.0021 4.41C63.6971 4.41 62.6171 4.92 61.7621 5.94L62.8121 7.185C63.4721 6.48 64.0121 6.165 64.7771 6.165C65.6771 6.165 66.1571 6.645 66.1571 7.47V7.8H64.2971C62.5721 7.8 61.4921 8.625 61.4921 9.96C61.4921 11.265 62.4821 12.18 64.0571 12.18C65.0021 12.18 65.7821 11.835 66.3221 11.28V12H68.1821V7.59ZM66.1571 9.225C66.1571 10.08 65.4821 10.695 64.5971 10.695C63.9521 10.695 63.5321 10.38 63.5321 9.885C63.5321 9.39 63.9071 9.135 64.5671 9.135H66.1571V9.225ZM76.956 7.395C76.956 5.595 75.891 4.41 74.166 4.41C73.281 4.41 72.516 4.725 71.991 5.25V4.575H70.131V12H72.156V7.665C72.156 6.81 72.741 6.225 73.566 6.225C74.391 6.225 74.946 6.81 74.946 7.665V12H76.956V7.395ZM83.6754 10.305C83.1504 10.35 82.8354 10.365 82.7154 10.365C81.7554 10.365 81.3354 10.05 81.3354 9.21V6.285H83.4354V4.575H81.3354V2.7H79.3104V4.575H78.1404V6.285H79.3104V9.39C79.3104 11.25 80.4054 12.18 82.2804 12.18C82.7304 12.18 83.1954 12.12 83.6754 12V10.305ZM84.4706 10.74C85.1456 11.64 86.2406 12.18 87.5456 12.18C88.3856 12.18 89.0756 11.97 89.6156 11.55C90.1706 11.13 90.4406 10.545 90.4406 9.81C90.4406 8.715 89.7956 8.13 88.3556 7.545L87.6356 7.245C87.0506 7.005 86.8556 6.87 86.8556 6.585C86.8556 6.24 87.1556 6.06 87.6506 6.06C88.2656 6.06 88.8206 6.3 89.3156 6.765L90.3356 5.52C89.6606 4.785 88.7756 4.41 87.6656 4.41C86.0456 4.41 84.9356 5.235 84.9356 6.63C84.9356 7.725 85.5956 8.34 86.9606 8.895L87.7556 9.225C88.3106 9.465 88.5206 9.585 88.5206 9.9C88.5206 10.305 88.1156 10.515 87.5756 10.515C86.8406 10.515 86.1356 10.185 85.4906 9.51L84.4706 10.74Z" fill="#46A358"/>
<path d="M1.365 52H2.535V47.86H4.845C6.765 47.86 8.01 46.66 8.01 44.965C8.01 43.3 6.765 42.1 4.845 42.1H1.365V52ZM2.535 46.81V43.15H4.815C6.075 43.15 6.795 43.9 6.795 44.98C6.795 46.075 6.075 46.81 4.815 46.81H2.535ZM9.12891 48.34C9.09891 50.395 10.8539 52.195 12.9389 52.15C15.0239 52.195 16.8239 50.395 16.7789 48.34C16.8239 46.255 15.0389 44.5 12.9539 44.53C10.8689 44.485 9.08391 46.255 9.12891 48.34ZM15.5939 48.355C15.5939 49.885 14.4239 51.085 12.9389 51.085C11.4539 51.085 10.3139 49.885 10.3139 48.355C10.3139 46.78 11.4539 45.595 12.9539 45.595C14.4389 45.595 15.5939 46.78 15.5939 48.355ZM22.7992 51.025C22.4242 51.085 22.1092 51.115 21.8242 51.115C20.8192 51.115 20.2792 50.755 20.2792 49.72V45.73H22.5592V44.695H20.2792V42.7H19.1242V44.695H17.8942V45.73H19.1242V49.795C19.1242 51.4 20.0692 52.165 21.5842 52.165C21.9292 52.165 22.3342 52.105 22.7992 52V51.025ZM28.058 51.025C27.683 51.085 27.368 51.115 27.083 51.115C26.078 51.115 25.538 50.755 25.538 49.72V45.73H27.818V44.695H25.538V42.7H24.383V44.695H23.153V45.73H24.383V49.795C24.383 51.4 25.328 52.165 26.843 52.165C27.188 52.165 27.593 52.105 28.058 52V51.025ZM36.0844 48.7C36.1444 48.4 36.1744 48.115 36.1744 47.83C36.1744 45.895 34.7344 44.53 32.8444 44.53C30.7594 44.53 29.1094 46.24 29.1094 48.355C29.1094 50.5 30.8044 52.165 32.9794 52.165C34.1344 52.165 35.1394 51.685 35.9044 50.89L35.2294 50.11C34.5694 50.77 33.8194 51.1 32.9944 51.1C31.5544 51.1 30.4444 50.14 30.3094 48.7H36.0844ZM30.3544 47.68C30.6094 46.42 31.5994 45.58 32.8144 45.58C34.0294 45.58 34.9744 46.375 34.9894 47.68H30.3544ZM42.0887 44.695C41.8937 44.65 41.7137 44.635 41.5487 44.635C40.6637 44.635 39.8087 45.025 39.2837 45.73V44.695H38.2037V52H39.3587V47.86C39.3587 46.51 40.4237 45.715 41.6537 45.715H42.0887V44.695ZM47.9324 52H49.1024V47.86H51.4124C53.3324 47.86 54.5774 46.66 54.5774 44.965C54.5774 43.3 53.3324 42.1 51.4124 42.1H47.9324V52ZM49.1024 46.81V43.15H51.3824C52.6424 43.15 53.3624 43.9 53.3624 44.98C53.3624 46.075 52.6424 46.81 51.3824 46.81H49.1024ZM56.441 52H57.596V40.75H56.441V52ZM65.6074 47.5C65.6074 45.58 64.4824 44.53 62.7574 44.53C61.5424 44.53 60.4474 45.055 59.7874 46.135L60.5524 46.765C61.1524 45.985 61.7974 45.595 62.6824 45.595C63.7774 45.595 64.4524 46.24 64.4524 47.44V48.07H62.1424C60.5674 48.07 59.5174 48.865 59.5174 50.11C59.5174 51.37 60.5674 52.165 62.0674 52.165C63.1324 52.165 63.9874 51.775 64.5274 51.055V52H65.6074V47.5ZM64.4524 49.195C64.4524 50.32 63.4174 51.205 62.2174 51.205C61.3624 51.205 60.7024 50.785 60.7024 50.05C60.7024 49.375 61.2574 49.015 62.2774 49.015H64.4524V49.195ZM74.1022 47.41C74.1022 45.685 73.0822 44.53 71.3872 44.53C70.4722 44.53 69.6772 44.875 69.1372 45.475V44.695H68.0572V52H69.2122V47.545C69.2122 46.405 70.0072 45.595 71.1322 45.595C72.2572 45.595 72.9472 46.39 72.9472 47.545V52H74.1022V47.41ZM80.5433 51.025C80.1683 51.085 79.8533 51.115 79.5683 51.115C78.5633 51.115 78.0233 50.755 78.0233 49.72V45.73H80.3033V44.695H78.0233V42.7H76.8683V44.695H75.6383V45.73H76.8683V49.795C76.8683 51.4 77.8133 52.165 79.3283 52.165C79.6733 52.165 80.0783 52.105 80.5433 52V51.025ZM81.5762 50.74C82.2212 51.58 83.2112 52.165 84.4262 52.165C85.1462 52.165 85.7462 51.985 86.2412 51.61C86.7362 51.235 86.9912 50.695 86.9912 50.02C86.9912 49.015 86.4212 48.445 85.0562 47.86L84.3812 47.575C83.4962 47.2 83.1962 46.975 83.1962 46.51C83.1962 45.925 83.6912 45.595 84.4112 45.595C85.0862 45.595 85.7162 45.91 86.2112 46.405L86.9162 45.685C86.3162 44.965 85.4912 44.53 84.4712 44.53C83.0762 44.53 82.0112 45.295 82.0112 46.57C82.0112 47.545 82.6112 48.1 83.8262 48.595L84.5312 48.895C85.4312 49.255 85.8062 49.48 85.8062 50.065C85.8062 50.71 85.2062 51.1 84.4112 51.1C83.5862 51.1 83.0162 50.695 82.3112 49.975L81.5762 50.74ZM0.615 90.035C1.395 91.355 2.715 92.165 4.26 92.165C6.105 92.165 7.455 91.04 7.455 89.405C7.455 88.13 6.705 87.41 5.145 86.645L4.05 86.12C3.27 85.745 2.91 85.55 2.655 85.175C2.52 84.98 2.46 84.74 2.46 84.455C2.46 83.54 3.24 83.015 4.215 83.015C5.115 83.015 5.94 83.465 6.48 84.26L7.335 83.615C6.69 82.61 5.55 81.935 4.23 81.935C2.61 81.935 1.245 82.97 1.245 84.515C1.245 85.835 2.115 86.525 3.48 87.17L4.59 87.695C5.7 88.235 6.24 88.535 6.24 89.435C6.24 90.44 5.43 91.085 4.245 91.085C3.15 91.085 2.22 90.515 1.485 89.39L0.615 90.035ZM16.0893 88.7C16.1493 88.4 16.1793 88.115 16.1793 87.83C16.1793 85.895 14.7393 84.53 12.8493 84.53C10.7643 84.53 9.11426 86.24 9.11426 88.355C9.11426 90.5 10.8093 92.165 12.9843 92.165C14.1393 92.165 15.1443 91.685 15.9093 90.89L15.2343 90.11C14.5743 90.77 13.8243 91.1 12.9993 91.1C11.5593 91.1 10.4493 90.14 10.3143 88.7H16.0893ZM10.3593 87.68C10.6143 86.42 11.6043 85.58 12.8193 85.58C14.0343 85.58 14.9793 86.375 14.9943 87.68H10.3593ZM24.6586 88.7C24.7186 88.4 24.7486 88.115 24.7486 87.83C24.7486 85.895 23.3086 84.53 21.4186 84.53C19.3336 84.53 17.6836 86.24 17.6836 88.355C17.6836 90.5 19.3786 92.165 21.5536 92.165C22.7086 92.165 23.7136 91.685 24.4786 90.89L23.8036 90.11C23.1436 90.77 22.3936 91.1 21.5686 91.1C20.1286 91.1 19.0186 90.14 18.8836 88.7H24.6586ZM18.9286 87.68C19.1836 86.42 20.1736 85.58 21.3886 85.58C22.6036 85.58 23.5486 86.375 23.5636 87.68H18.9286ZM32.5679 80.75V85.775C31.9829 84.995 30.9629 84.53 29.8679 84.53C27.8129 84.53 26.2529 86.21 26.2529 88.355C26.2529 90.5 27.8129 92.165 29.8679 92.165C31.0079 92.165 32.0729 91.67 32.6279 90.845V92H33.7229V80.75H32.5679ZM32.5829 88.355C32.5829 90.2 31.3529 91.1 30.0329 91.1C28.5479 91.1 27.4379 89.915 27.4379 88.34C27.4379 86.765 28.5479 85.595 30.0329 85.595C31.3529 85.595 32.5829 86.495 32.5829 88.355ZM35.5655 90.74C36.2105 91.58 37.2005 92.165 38.4155 92.165C39.1355 92.165 39.7355 91.985 40.2305 91.61C40.7255 91.235 40.9805 90.695 40.9805 90.02C40.9805 89.015 40.4105 88.445 39.0455 87.86L38.3705 87.575C37.4855 87.2 37.1855 86.975 37.1855 86.51C37.1855 85.925 37.6805 85.595 38.4005 85.595C39.0755 85.595 39.7055 85.91 40.2005 86.405L40.9055 85.685C40.3055 84.965 39.4805 84.53 38.4605 84.53C37.0655 84.53 36.0005 85.295 36.0005 86.57C36.0005 87.545 36.6005 88.1 37.8155 88.595L38.5205 88.895C39.4205 89.255 39.7955 89.48 39.7955 90.065C39.7955 90.71 39.1955 91.1 38.4005 91.1C37.5755 91.1 37.0055 90.695 36.3005 89.975L35.5655 90.74ZM0.615 130.035C1.395 131.355 2.715 132.165 4.26 132.165C6.105 132.165 7.455 131.04 7.455 129.405C7.455 128.13 6.705 127.41 5.145 126.645L4.05 126.12C3.27 125.745 2.91 125.55 2.655 125.175C2.52 124.98 2.46 124.74 2.46 124.455C2.46 123.54 3.24 123.015 4.215 123.015C5.115 123.015 5.94 123.465 6.48 124.26L7.335 123.615C6.69 122.61 5.55 121.935 4.23 121.935C2.61 121.935 1.245 122.97 1.245 124.515C1.245 125.835 2.115 126.525 3.48 127.17L4.59 127.695C5.7 128.235 6.24 128.535 6.24 129.435C6.24 130.44 5.43 131.085 4.245 131.085C3.15 131.085 2.22 130.515 1.485 129.39L0.615 130.035ZM20.3043 127.41C20.3043 125.67 19.3293 124.53 17.6493 124.53C16.5693 124.53 15.6843 125.025 15.1443 125.79C14.7243 124.995 13.9593 124.53 12.8943 124.53C11.9943 124.53 11.2443 124.86 10.7193 125.46V124.695H9.63926V132H10.7943V127.56C10.7943 126.405 11.5593 125.595 12.6543 125.595C13.7193 125.595 14.3943 126.375 14.3943 127.56V132H15.5493V127.455C15.5493 126.42 16.3293 125.595 17.4243 125.595C18.5043 125.595 19.1493 126.375 19.1493 127.56V132H20.3043V127.41ZM28.2246 127.5C28.2246 125.58 27.0996 124.53 25.3746 124.53C24.1596 124.53 23.0646 125.055 22.4046 126.135L23.1696 126.765C23.7696 125.985 24.4146 125.595 25.2996 125.595C26.3946 125.595 27.0696 126.24 27.0696 127.44V128.07H24.7596C23.1846 128.07 22.1346 128.865 22.1346 130.11C22.1346 131.37 23.1846 132.165 24.6846 132.165C25.7496 132.165 26.6046 131.775 27.1446 131.055V132H28.2246V127.5ZM27.0696 129.195C27.0696 130.32 26.0346 131.205 24.8346 131.205C23.9796 131.205 23.3196 130.785 23.3196 130.05C23.3196 129.375 23.8746 129.015 24.8946 129.015H27.0696V129.195ZM30.6744 132H31.8294V120.75H30.6744V132ZM34.3658 132H35.5208V120.75H34.3658V132ZM42.3513 132H43.5213V127.86H45.8313C47.7513 127.86 48.9963 126.66 48.9963 124.965C48.9963 123.3 47.7513 122.1 45.8313 122.1H42.3513V132ZM43.5213 126.81V123.15H45.8013C47.0613 123.15 47.7813 123.9 47.7813 124.98C47.7813 126.075 47.0613 126.81 45.8013 126.81H43.5213ZM50.86 132H52.015V120.75H50.86V132ZM60.0264 127.5C60.0264 125.58 58.9014 124.53 57.1764 124.53C55.9614 124.53 54.8664 125.055 54.2064 126.135L54.9714 126.765C55.5714 125.985 56.2164 125.595 57.1014 125.595C58.1964 125.595 58.8714 126.24 58.8714 127.44V128.07H56.5614C54.9864 128.07 53.9364 128.865 53.9364 130.11C53.9364 131.37 54.9864 132.165 56.4864 132.165C57.5514 132.165 58.4064 131.775 58.9464 131.055V132H60.0264V127.5ZM58.8714 129.195C58.8714 130.32 57.8364 131.205 56.6364 131.205C55.7814 131.205 55.1214 130.785 55.1214 130.05C55.1214 129.375 55.6764 129.015 56.6964 129.015H58.8714V129.195ZM68.5212 127.41C68.5212 125.685 67.5012 124.53 65.8062 124.53C64.8912 124.53 64.0962 124.875 63.5562 125.475V124.695H62.4762V132H63.6312V127.545C63.6312 126.405 64.4262 125.595 65.5512 125.595C66.6762 125.595 67.3662 126.39 67.3662 127.545V132H68.5212V127.41ZM74.9623 131.025C74.5873 131.085 74.2723 131.115 73.9873 131.115C72.9823 131.115 72.4423 130.755 72.4423 129.72V125.73H74.7223V124.695H72.4423V122.7H71.2873V124.695H70.0573V125.73H71.2873V129.795C71.2873 131.4 72.2323 132.165 73.7473 132.165C74.0923 132.165 74.4973 132.105 74.9623 132V131.025ZM75.9952 130.74C76.6402 131.58 77.6302 132.165 78.8452 132.165C79.5652 132.165 80.1652 131.985 80.6602 131.61C81.1552 131.235 81.4102 130.695 81.4102 130.02C81.4102 129.015 80.8402 128.445 79.4752 127.86L78.8002 127.575C77.9152 127.2 77.6152 126.975 77.6152 126.51C77.6152 125.925 78.1102 125.595 78.8302 125.595C79.5052 125.595 80.1352 125.91 80.6302 126.405L81.3352 125.685C80.7352 124.965 79.9102 124.53 78.8902 124.53C77.4952 124.53 76.4302 125.295 76.4302 126.57C76.4302 127.545 77.0302 128.1 78.2452 128.595L78.9502 128.895C79.8502 129.255 80.2252 129.48 80.2252 130.065C80.2252 130.71 79.6252 131.1 78.8302 131.1C78.0052 131.1 77.4352 130.695 76.7302 129.975L75.9952 130.74ZM8.58 169.15C8.58 167.875 7.86 166.915 6.645 166.555C7.245 166.09 7.59 165.43 7.59 164.605C7.59 163.87 7.335 163.27 6.825 162.805C6.315 162.34 5.625 162.1 4.77 162.1H1.365V172H5.445C7.38 172 8.58 170.8 8.58 169.15ZM4.65 163.15C5.79 163.15 6.39 163.735 6.39 164.68C6.39 165.625 5.775 166.225 4.65 166.225H2.535V163.15H4.65ZM7.38 169.12C7.38 170.215 6.63 170.95 5.325 170.95H2.535V167.29H5.325C6.63 167.29 7.38 168.025 7.38 169.12ZM10.5182 172H11.6732V164.695H10.5182V172ZM10.2332 161.905C10.2332 162.385 10.6232 162.745 11.1032 162.745C11.5832 162.745 11.9582 162.385 11.9582 161.905C11.9582 161.44 11.5682 161.065 11.1032 161.065C10.6232 161.065 10.2332 161.44 10.2332 161.905ZM20.1346 164.695V165.865C19.5796 165.025 18.5146 164.53 17.3596 164.53C15.3046 164.53 13.7746 166.135 13.7746 168.235C13.7746 170.35 15.3046 171.925 17.3596 171.925C18.4546 171.925 19.4896 171.475 20.0746 170.71V171.355C20.0746 172.93 19.1596 173.8 17.6446 173.8C16.5496 173.8 15.7396 173.365 14.9146 172.645L14.2396 173.455C15.0646 174.28 16.2496 174.865 17.6746 174.865C19.8346 174.865 21.2296 173.515 21.2296 171.295V164.695H20.1346ZM20.0896 168.235C20.0896 170.005 18.8746 170.86 17.5396 170.86C16.0546 170.86 14.9446 169.795 14.9446 168.25C14.9446 166.72 16.0546 165.625 17.5396 165.625C18.8596 165.625 20.0896 166.48 20.0896 168.235ZM28.0545 172H29.2245V167.86H31.5345C33.4545 167.86 34.6995 166.66 34.6995 164.965C34.6995 163.3 33.4545 162.1 31.5345 162.1H28.0545V172ZM29.2245 166.81V163.15H31.5045C32.7645 163.15 33.4845 163.9 33.4845 164.98C33.4845 166.075 32.7645 166.81 31.5045 166.81H29.2245ZM36.5631 172H37.7181V160.75H36.5631V172ZM45.7295 167.5C45.7295 165.58 44.6045 164.53 42.8795 164.53C41.6645 164.53 40.5695 165.055 39.9095 166.135L40.6745 166.765C41.2745 165.985 41.9195 165.595 42.8045 165.595C43.8995 165.595 44.5745 166.24 44.5745 167.44V168.07H42.2645C40.6895 168.07 39.6395 168.865 39.6395 170.11C39.6395 171.37 40.6895 172.165 42.1895 172.165C43.2545 172.165 44.1095 171.775 44.6495 171.055V172H45.7295V167.5ZM44.5745 169.195C44.5745 170.32 43.5395 171.205 42.3395 171.205C41.4845 171.205 40.8245 170.785 40.8245 170.05C40.8245 169.375 41.3795 169.015 42.3995 169.015H44.5745V169.195ZM54.2243 167.41C54.2243 165.685 53.2043 164.53 51.5093 164.53C50.5943 164.53 49.7993 164.875 49.2593 165.475V164.695H48.1793V172H49.3343V167.545C49.3343 166.405 50.1293 165.595 51.2543 165.595C52.3793 165.595 53.0693 166.39 53.0693 167.545V172H54.2243V167.41ZM60.6654 171.025C60.2904 171.085 59.9754 171.115 59.6904 171.115C58.6854 171.115 58.1454 170.755 58.1454 169.72V165.73H60.4254V164.695H58.1454V162.7H56.9904V164.695H55.7604V165.73H56.9904V169.795C56.9904 171.4 57.9354 172.165 59.4504 172.165C59.7954 172.165 60.2004 172.105 60.6654 172V171.025ZM61.6983 170.74C62.3433 171.58 63.3333 172.165 64.5483 172.165C65.2683 172.165 65.8683 171.985 66.3633 171.61C66.8583 171.235 67.1133 170.695 67.1133 170.02C67.1133 169.015 66.5433 168.445 65.1783 167.86L64.5033 167.575C63.6183 167.2 63.3183 166.975 63.3183 166.51C63.3183 165.925 63.8133 165.595 64.5333 165.595C65.2083 165.595 65.8383 165.91 66.3333 166.405L67.0383 165.685C66.4383 164.965 65.6133 164.53 64.5933 164.53C63.1983 164.53 62.1333 165.295 62.1333 166.57C62.1333 167.545 62.7333 168.1 63.9483 168.595L64.6533 168.895C65.5533 169.255 65.9283 169.48 65.9283 170.065C65.9283 170.71 65.3283 171.1 64.5333 171.1C63.7083 171.1 63.1383 170.695 62.4333 169.975L61.6983 170.74ZM0.615 210.035C1.395 211.355 2.715 212.165 4.26 212.165C6.105 212.165 7.455 211.04 7.455 209.405C7.455 208.13 6.705 207.41 5.145 206.645L4.05 206.12C3.27 205.745 2.91 205.55 2.655 205.175C2.52 204.98 2.46 204.74 2.46 204.455C2.46 203.54 3.24 203.015 4.215 203.015C5.115 203.015 5.94 203.465 6.48 204.26L7.335 203.615C6.69 202.61 5.55 201.935 4.23 201.935C2.61 201.935 1.245 202.97 1.245 204.515C1.245 205.835 2.115 206.525 3.48 207.17L4.59 207.695C5.7 208.235 6.24 208.535 6.24 209.435C6.24 210.44 5.43 211.085 4.245 211.085C3.15 211.085 2.22 210.515 1.485 209.39L0.615 210.035ZM9.54926 209.09C9.54926 210.935 10.8693 212.165 12.5793 212.165C14.2743 212.165 15.5943 210.935 15.5943 209.09V204.695H14.4393V209.165C14.4393 210.32 13.6443 211.1 12.5793 211.1C11.4993 211.1 10.6893 210.35 10.6893 209.165V204.695H9.54926V209.09ZM17.5078 208.34C17.5078 210.455 19.2178 212.165 21.3328 212.165C22.6078 212.165 23.6728 211.55 24.3328 210.575L23.5078 209.93C22.9228 210.71 22.2028 211.1 21.3478 211.1C19.8328 211.1 18.6928 209.87 18.6928 208.34C18.6928 206.825 19.8328 205.595 21.3478 205.595C22.2028 205.595 22.9378 205.985 23.5228 206.78L24.3478 206.12C23.6878 205.145 22.6078 204.53 21.3328 204.53C19.2478 204.5 17.4628 206.255 17.5078 208.34ZM25.623 208.34C25.623 210.455 27.333 212.165 29.448 212.165C30.723 212.165 31.788 211.55 32.448 210.575L31.623 209.93C31.038 210.71 30.318 211.1 29.463 211.1C27.948 211.1 26.808 209.87 26.808 208.34C26.808 206.825 27.948 205.595 29.463 205.595C30.318 205.595 31.053 205.985 31.638 206.78L32.463 206.12C31.803 205.145 30.723 204.53 29.448 204.53C27.363 204.5 25.578 206.255 25.623 208.34ZM34.3198 209.09C34.3198 210.935 35.6398 212.165 37.3498 212.165C39.0448 212.165 40.3648 210.935 40.3648 209.09V204.695H39.2098V209.165C39.2098 210.32 38.4148 211.1 37.3498 211.1C36.2698 211.1 35.4598 210.35 35.4598 209.165V204.695H34.3198V209.09ZM42.8033 212H43.9583V200.75H42.8033V212ZM52.9447 208.7C53.0047 208.4 53.0347 208.115 53.0347 207.83C53.0347 205.895 51.5947 204.53 49.7047 204.53C47.6197 204.53 45.9697 206.24 45.9697 208.355C45.9697 210.5 47.6647 212.165 49.8397 212.165C50.9947 212.165 51.9997 211.685 52.7647 210.89L52.0897 210.11C51.4297 210.77 50.6797 211.1 49.8547 211.1C48.4147 211.1 47.3047 210.14 47.1697 208.7H52.9447ZM47.2147 207.68C47.4697 206.42 48.4597 205.58 49.6747 205.58C50.8897 205.58 51.8347 206.375 51.8497 207.68H47.2147ZM61.1091 207.41C61.1091 205.685 60.0891 204.53 58.3941 204.53C57.4791 204.53 56.6841 204.875 56.1441 205.475V204.695H55.0641V212H56.2191V207.545C56.2191 206.405 57.0141 205.595 58.1391 205.595C59.2641 205.595 59.9541 206.39 59.9541 207.545V212H61.1091V207.41ZM67.5502 211.025C67.1752 211.085 66.8602 211.115 66.5752 211.115C65.5702 211.115 65.0302 210.755 65.0302 209.72V205.73H67.3102V204.695H65.0302V202.7H63.8752V204.695H62.6452V205.73H63.8752V209.795C63.8752 211.4 64.8202 212.165 66.3352 212.165C66.6802 212.165 67.0852 212.105 67.5502 212V211.025ZM68.583 210.74C69.228 211.58 70.218 212.165 71.433 212.165C72.153 212.165 72.753 211.985 73.248 211.61C73.743 211.235 73.998 210.695 73.998 210.02C73.998 209.015 73.428 208.445 72.063 207.86L71.388 207.575C70.503 207.2 70.203 206.975 70.203 206.51C70.203 205.925 70.698 205.595 71.418 205.595C72.093 205.595 72.723 205.91 73.218 206.405L73.923 205.685C73.323 204.965 72.498 204.53 71.478 204.53C70.083 204.53 69.018 205.295 69.018 206.57C69.018 207.545 69.618 208.1 70.833 208.595L71.538 208.895C72.438 209.255 72.813 209.48 72.813 210.065C72.813 210.71 72.213 211.1 71.418 211.1C70.593 211.1 70.023 210.695 69.318 209.975L68.583 210.74ZM3.765 252H4.935V243.15H8.43V242.1H0.285V243.15H3.765V252ZM13.1288 244.695C12.9338 244.65 12.7538 244.635 12.5888 244.635C11.7038 244.635 10.8488 245.025 10.3238 245.73V244.695H9.24375V252H10.3988V247.86C10.3988 246.51 11.4638 245.715 12.6938 245.715H13.1288V244.695ZM20.9818 248.7C21.0418 248.4 21.0718 248.115 21.0718 247.83C21.0718 245.895 19.6318 244.53 17.7418 244.53C15.6568 244.53 14.0068 246.24 14.0068 248.355C14.0068 250.5 15.7018 252.165 17.8768 252.165C19.0318 252.165 20.0368 251.685 20.8018 250.89L20.1268 250.11C19.4668 250.77 18.7168 251.1 17.8918 251.1C16.4518 251.1 15.3418 250.14 15.2068 248.7H20.9818ZM15.2518 247.68C15.5068 246.42 16.4968 245.58 17.7118 245.58C18.9268 245.58 19.8718 246.375 19.8868 247.68H15.2518ZM26.9862 244.695C26.7912 244.65 26.6112 244.635 26.4462 244.635C25.5612 244.635 24.7062 245.025 24.1812 245.73V244.695H23.1012V252H24.2562V247.86C24.2562 246.51 25.3212 245.715 26.5512 245.715H26.9862V244.695ZM32.4207 244.695C32.2257 244.65 32.0457 244.635 31.8807 244.635C30.9957 244.635 30.1407 245.025 29.6157 245.73V244.695H28.5357V252H29.6907V247.86C29.6907 246.51 30.7557 245.715 31.9857 245.715H32.4207V244.695ZM39.2988 247.5C39.2988 245.58 38.1738 244.53 36.4488 244.53C35.2338 244.53 34.1388 245.055 33.4788 246.135L34.2438 246.765C34.8438 245.985 35.4888 245.595 36.3738 245.595C37.4688 245.595 38.1438 246.24 38.1438 247.44V248.07H35.8338C34.2588 248.07 33.2088 248.865 33.2088 250.11C33.2088 251.37 34.2588 252.165 35.7588 252.165C36.8238 252.165 37.6788 251.775 38.2188 251.055V252H39.2988V247.5ZM38.1438 249.195C38.1438 250.32 37.1088 251.205 35.9088 251.205C35.0538 251.205 34.3938 250.785 34.3938 250.05C34.3938 249.375 34.9488 249.015 35.9688 249.015H38.1438V249.195ZM45.6336 244.695C45.4386 244.65 45.2586 244.635 45.0936 244.635C44.2086 244.635 43.3536 245.025 42.8286 245.73V244.695H41.7486V252H42.9036V247.86C42.9036 246.51 43.9686 245.715 45.1986 245.715H45.6336V244.695ZM47.1832 252H48.3382V244.695H47.1832V252ZM46.8982 241.905C46.8982 242.385 47.2882 242.745 47.7682 242.745C48.2482 242.745 48.6232 242.385 48.6232 241.905C48.6232 241.44 48.2332 241.065 47.7682 241.065C47.2882 241.065 46.8982 241.44 46.8982 241.905ZM50.7846 249.09C50.7846 250.935 52.1046 252.165 53.8146 252.165C55.5096 252.165 56.8296 250.935 56.8296 249.09V244.695H55.6746V249.165C55.6746 250.32 54.8796 251.1 53.8146 251.1C52.7346 251.1 51.9246 250.35 51.9246 249.165V244.695H50.7846V249.09ZM69.9332 247.41C69.9332 245.67 68.9582 244.53 67.2782 244.53C66.1982 244.53 65.3132 245.025 64.7732 245.79C64.3532 244.995 63.5882 244.53 62.5232 244.53C61.6232 244.53 60.8732 244.86 60.3482 245.46V244.695H59.2682V252H60.4232V247.56C60.4232 246.405 61.1882 245.595 62.2832 245.595C63.3482 245.595 64.0232 246.375 64.0232 247.56V252H65.1782V247.455C65.1782 246.42 65.9582 245.595 67.0532 245.595C68.1332 245.595 68.7782 246.375 68.7782 247.56V252H69.9332V247.41ZM71.6885 250.74C72.3335 251.58 73.3235 252.165 74.5385 252.165C75.2585 252.165 75.8585 251.985 76.3535 251.61C76.8485 251.235 77.1035 250.695 77.1035 250.02C77.1035 249.015 76.5335 248.445 75.1685 247.86L74.4935 247.575C73.6085 247.2 73.3085 246.975 73.3085 246.51C73.3085 245.925 73.8035 245.595 74.5235 245.595C75.1985 245.595 75.8285 245.91 76.3235 246.405L77.0285 245.685C76.4285 244.965 75.6035 244.53 74.5835 244.53C73.1885 244.53 72.1235 245.295 72.1235 246.57C72.1235 247.545 72.7235 248.1 73.9385 248.595L74.6435 248.895C75.5435 249.255 75.9185 249.48 75.9185 250.065C75.9185 250.71 75.3185 251.1 74.5235 251.1C73.6985 251.1 73.1285 250.695 72.4235 249.975L71.6885 250.74ZM0.72 287.05C0.675 289.885 3.03 292.21 5.865 292.165C6.84 292.165 7.725 291.94 8.52 291.475C9.33 291.01 9.96 290.38 10.395 289.6V286.96H5.85V288.01H9.225V289.345C8.55 290.425 7.365 291.115 5.925 291.115C3.645 291.16 1.89 289.3 1.935 287.035C1.89 284.8 3.615 282.97 5.865 283.015C7.185 283.015 8.25 283.615 9.015 284.65L9.9 283.96C8.985 282.685 7.545 281.935 5.865 281.935C3.03 281.89 0.675 284.215 0.72 287.05ZM17.9414 287.5C17.9414 285.58 16.8164 284.53 15.0914 284.53C13.8764 284.53 12.7814 285.055 12.1214 286.135L12.8864 286.765C13.4864 285.985 14.1314 285.595 15.0164 285.595C16.1114 285.595 16.7864 286.24 16.7864 287.44V288.07H14.4764C12.9014 288.07 11.8514 288.865 11.8514 290.11C11.8514 291.37 12.9014 292.165 14.4014 292.165C15.4664 292.165 16.3214 291.775 16.8614 291.055V292H17.9414V287.5ZM16.7864 289.195C16.7864 290.32 15.7514 291.205 14.5514 291.205C13.6964 291.205 13.0364 290.785 13.0364 290.05C13.0364 289.375 13.5914 289.015 14.6114 289.015H16.7864V289.195ZM24.2762 284.695C24.0812 284.65 23.9012 284.635 23.7362 284.635C22.8512 284.635 21.9962 285.025 21.4712 285.73V284.695H20.3912V292H21.5462V287.86C21.5462 286.51 22.6112 285.715 23.8412 285.715H24.2762V284.695ZM31.4693 280.75V285.775C30.8843 284.995 29.8643 284.53 28.7693 284.53C26.7143 284.53 25.1543 286.21 25.1543 288.355C25.1543 290.5 26.7143 292.165 28.7693 292.165C29.9093 292.165 30.9743 291.67 31.5293 290.845V292H32.6243V280.75H31.4693ZM31.4843 288.355C31.4843 290.2 30.2543 291.1 28.9343 291.1C27.4493 291.1 26.3393 289.915 26.3393 288.34C26.3393 286.765 27.4493 285.595 28.9343 285.595C30.2543 285.595 31.4843 286.495 31.4843 288.355ZM41.6068 288.7C41.6668 288.4 41.6968 288.115 41.6968 287.83C41.6968 285.895 40.2568 284.53 38.3668 284.53C36.2818 284.53 34.6318 286.24 34.6318 288.355C34.6318 290.5 36.3268 292.165 38.5018 292.165C39.6568 292.165 40.6618 291.685 41.4268 290.89L40.7518 290.11C40.0918 290.77 39.3418 291.1 38.5168 291.1C37.0768 291.1 35.9668 290.14 35.8318 288.7H41.6068ZM35.8768 287.68C36.1318 286.42 37.1218 285.58 38.3368 285.58C39.5518 285.58 40.4968 286.375 40.5118 287.68H35.8768ZM49.7712 287.41C49.7712 285.685 48.7512 284.53 47.0562 284.53C46.1412 284.53 45.3462 284.875 44.8062 285.475V284.695H43.7262V292H44.8812V287.545C44.8812 286.405 45.6762 285.595 46.8012 285.595C47.9262 285.595 48.6162 286.39 48.6162 287.545V292H49.7712V287.41ZM52.2223 292H53.3773V284.695H52.2223V292ZM51.9373 281.905C51.9373 282.385 52.3273 282.745 52.8073 282.745C53.2873 282.745 53.6623 282.385 53.6623 281.905C53.6623 281.44 53.2723 281.065 52.8073 281.065C52.3273 281.065 51.9373 281.44 51.9373 281.905ZM61.9587 287.41C61.9587 285.685 60.9387 284.53 59.2437 284.53C58.3287 284.53 57.5337 284.875 56.9937 285.475V284.695H55.9137V292H57.0687V287.545C57.0687 286.405 57.8637 285.595 58.9887 285.595C60.1137 285.595 60.8037 286.39 60.8037 287.545V292H61.9587V287.41ZM70.3348 284.695V285.865C69.7798 285.025 68.7148 284.53 67.5598 284.53C65.5048 284.53 63.9748 286.135 63.9748 288.235C63.9748 290.35 65.5048 291.925 67.5598 291.925C68.6548 291.925 69.6898 291.475 70.2748 290.71V291.355C70.2748 292.93 69.3598 293.8 67.8448 293.8C66.7498 293.8 65.9398 293.365 65.1148 292.645L64.4398 293.455C65.2648 294.28 66.4498 294.865 67.8748 294.865C70.0348 294.865 71.4298 293.515 71.4298 291.295V284.695H70.3348ZM70.2898 288.235C70.2898 290.005 69.0748 290.86 67.7398 290.86C66.2548 290.86 65.1448 289.795 65.1448 288.25C65.1448 286.72 66.2548 285.625 67.7398 285.625C69.0598 285.625 70.2898 286.48 70.2898 288.235ZM8.235 332H9.48L5.19 321.935H4.755L0.465 332H1.695L2.535 329.99H7.395L8.235 332ZM6.945 328.94H2.985L4.965 324.065L6.945 328.94ZM10.4619 328.34C10.4619 330.455 12.1719 332.165 14.2869 332.165C15.5619 332.165 16.6269 331.55 17.2869 330.575L16.4619 329.93C15.8769 330.71 15.1569 331.1 14.3019 331.1C12.7869 331.1 11.6469 329.87 11.6469 328.34C11.6469 326.825 12.7869 325.595 14.3019 325.595C15.1569 325.595 15.8919 325.985 16.4769 326.78L17.3019 326.12C16.6419 325.145 15.5619 324.53 14.2869 324.53C12.2019 324.5 10.4169 326.255 10.4619 328.34ZM18.5771 328.34C18.5771 330.455 20.2871 332.165 22.4021 332.165C23.6771 332.165 24.7421 331.55 25.4021 330.575L24.5771 329.93C23.9921 330.71 23.2721 331.1 22.4171 331.1C20.9021 331.1 19.7621 329.87 19.7621 328.34C19.7621 326.825 20.9021 325.595 22.4171 325.595C23.2721 325.595 24.0071 325.985 24.5921 326.78L25.4171 326.12C24.7571 325.145 23.6771 324.53 22.4021 324.53C20.3171 324.5 18.5321 326.255 18.5771 328.34ZM33.6674 328.7C33.7274 328.4 33.7574 328.115 33.7574 327.83C33.7574 325.895 32.3174 324.53 30.4274 324.53C28.3424 324.53 26.6924 326.24 26.6924 328.355C26.6924 330.5 28.3874 332.165 30.5624 332.165C31.7174 332.165 32.7224 331.685 33.4874 330.89L32.8124 330.11C32.1524 330.77 31.4024 331.1 30.5774 331.1C29.1374 331.1 28.0274 330.14 27.8924 328.7H33.6674ZM27.9374 327.68C28.1924 326.42 29.1824 325.58 30.3974 325.58C31.6124 325.58 32.5574 326.375 32.5724 327.68H27.9374ZM35.0967 330.74C35.7417 331.58 36.7317 332.165 37.9467 332.165C38.6667 332.165 39.2667 331.985 39.7617 331.61C40.2567 331.235 40.5117 330.695 40.5117 330.02C40.5117 329.015 39.9417 328.445 38.5767 327.86L37.9017 327.575C37.0167 327.2 36.7167 326.975 36.7167 326.51C36.7167 325.925 37.2117 325.595 37.9317 325.595C38.6067 325.595 39.2367 325.91 39.7317 326.405L40.4367 325.685C39.8367 324.965 39.0117 324.53 37.9917 324.53C36.5967 324.53 35.5317 325.295 35.5317 326.57C35.5317 327.545 36.1317 328.1 37.3467 328.595L38.0517 328.895C38.9517 329.255 39.3267 329.48 39.3267 330.065C39.3267 330.71 38.7267 331.1 37.9317 331.1C37.1067 331.1 36.5367 330.695 35.8317 329.975L35.0967 330.74ZM41.9082 330.74C42.5532 331.58 43.5432 332.165 44.7582 332.165C45.4782 332.165 46.0782 331.985 46.5732 331.61C47.0682 331.235 47.3232 330.695 47.3232 330.02C47.3232 329.015 46.7532 328.445 45.3882 327.86L44.7132 327.575C43.8282 327.2 43.5282 326.975 43.5282 326.51C43.5282 325.925 44.0232 325.595 44.7432 325.595C45.4182 325.595 46.0482 325.91 46.5432 326.405L47.2482 325.685C46.6482 324.965 45.8232 324.53 44.8032 324.53C43.4082 324.53 42.3432 325.295 42.3432 326.57C42.3432 327.545 42.9432 328.1 44.1582 328.595L44.8632 328.895C45.7632 329.255 46.1382 329.48 46.1382 330.065C46.1382 330.71 45.5382 331.1 44.7432 331.1C43.9182 331.1 43.3482 330.695 42.6432 329.975L41.9082 330.74ZM48.8848 328.34C48.8548 330.395 50.6098 332.195 52.6948 332.15C54.7798 332.195 56.5798 330.395 56.5348 328.34C56.5798 326.255 54.7948 324.5 52.7098 324.53C50.6248 324.485 48.8398 326.255 48.8848 328.34ZM55.3498 328.355C55.3498 329.885 54.1798 331.085 52.6948 331.085C51.2098 331.085 50.0698 329.885 50.0698 328.355C50.0698 326.78 51.2098 325.595 52.7098 325.595C54.1948 325.595 55.3498 326.78 55.3498 328.355ZM62.45 324.695C62.255 324.65 62.075 324.635 61.91 324.635C61.025 324.635 60.17 325.025 59.645 325.73V324.695H58.565V332H59.72V327.86C59.72 326.51 60.785 325.715 62.015 325.715H62.45V324.695ZM63.9996 332H65.1546V324.695H63.9996V332ZM63.7146 321.905C63.7146 322.385 64.1046 322.745 64.5846 322.745C65.0646 322.745 65.4396 322.385 65.4396 321.905C65.4396 321.44 65.0496 321.065 64.5846 321.065C64.1046 321.065 63.7146 321.44 63.7146 321.905ZM74.141 328.7C74.201 328.4 74.231 328.115 74.231 327.83C74.231 325.895 72.791 324.53 70.901 324.53C68.816 324.53 67.166 326.24 67.166 328.355C67.166 330.5 68.861 332.165 71.036 332.165C72.191 332.165 73.196 331.685 73.961 330.89L73.286 330.11C72.626 330.77 71.876 331.1 71.051 331.1C69.611 331.1 68.501 330.14 68.366 328.7H74.141ZM68.411 327.68C68.666 326.42 69.656 325.58 70.871 325.58C72.086 325.58 73.031 326.375 73.046 327.68H68.411ZM75.5704 330.74C76.2154 331.58 77.2054 332.165 78.4204 332.165C79.1404 332.165 79.7404 331.985 80.2354 331.61C80.7304 331.235 80.9854 330.695 80.9854 330.02C80.9854 329.015 80.4154 328.445 79.0504 327.86L78.3754 327.575C77.4904 327.2 77.1904 326.975 77.1904 326.51C77.1904 325.925 77.6854 325.595 78.4054 325.595C79.0804 325.595 79.7104 325.91 80.2054 326.405L80.9104 325.685C80.3104 324.965 79.4854 324.53 78.4654 324.53C77.0704 324.53 76.0054 325.295 76.0054 326.57C76.0054 327.545 76.6054 328.1 77.8204 328.595L78.5254 328.895C79.4254 329.255 79.8004 329.48 79.8004 330.065C79.8004 330.71 79.2004 331.1 78.4054 331.1C77.5804 331.1 77.0104 330.695 76.3054 329.975L75.5704 330.74Z" fill="#3D3D3D"/>
</svg>
