<svg width="54" height="95" viewBox="0 0 54 95" fill="none" xmlns="http://www.w3.org/2000/svg">
<path d="M0.615 10.035C1.395 11.355 2.715 12.165 4.26 12.165C6.105 12.165 7.455 11.04 7.455 9.405C7.455 8.13 6.705 7.41 5.145 6.645L4.05 6.12C3.27 5.745 2.91 5.55 2.655 5.175C2.52 4.98 2.46 4.74 2.46 4.455C2.46 3.54 3.24 3.015 4.215 3.015C5.115 3.015 5.94 3.465 6.48 4.26L7.335 3.615C6.69 2.61 5.55 1.935 4.23 1.935C2.61 1.935 1.245 2.97 1.245 4.515C1.245 5.835 2.115 6.525 3.48 7.17L4.59 7.695C5.7 8.235 6.24 8.535 6.24 9.435C6.24 10.44 5.43 11.085 4.245 11.085C3.15 11.085 2.22 10.515 1.485 9.39L0.615 10.035ZM20.3043 7.41C20.3043 5.67 19.3293 4.53 17.6493 4.53C16.5693 4.53 15.6843 5.025 15.1443 5.79C14.7243 4.995 13.9593 4.53 12.8943 4.53C11.9943 4.53 11.2443 4.86 10.7193 5.46V4.695H9.63926V12H10.7943V7.56C10.7943 6.405 11.5593 5.595 12.6543 5.595C13.7193 5.595 14.3943 6.375 14.3943 7.56V12H15.5493V7.455C15.5493 6.42 16.3293 5.595 17.4243 5.595C18.5043 5.595 19.1493 6.375 19.1493 7.56V12H20.3043V7.41ZM28.2246 7.5C28.2246 5.58 27.0996 4.53 25.3746 4.53C24.1596 4.53 23.0646 5.055 22.4046 6.135L23.1696 6.765C23.7696 5.985 24.4146 5.595 25.2996 5.595C26.3946 5.595 27.0696 6.24 27.0696 7.44V8.07H24.7596C23.1846 8.07 22.1346 8.865 22.1346 10.11C22.1346 11.37 23.1846 12.165 24.6846 12.165C25.7496 12.165 26.6046 11.775 27.1446 11.055V12H28.2246V7.5ZM27.0696 9.195C27.0696 10.32 26.0346 11.205 24.8346 11.205C23.9796 11.205 23.3196 10.785 23.3196 10.05C23.3196 9.375 23.8746 9.015 24.8946 9.015H27.0696V9.195ZM30.6744 12H31.8294V0.749999H30.6744V12ZM34.3658 12H35.5208V0.749999H34.3658V12ZM10.065 41.935L5.91 47.65L1.785 41.935H1.365V52H2.535V44.875L5.715 49.195H6.135L9.3 44.905V52H10.47V41.935H10.065ZM19.4877 48.7C19.5477 48.4 19.5777 48.115 19.5777 47.83C19.5777 45.895 18.1377 44.53 16.2477 44.53C14.1627 44.53 12.5127 46.24 12.5127 48.355C12.5127 50.5 14.2077 52.165 16.3827 52.165C17.5377 52.165 18.5427 51.685 19.3077 50.89L18.6327 50.11C17.9727 50.77 17.2227 51.1 16.3977 51.1C14.9577 51.1 13.8477 50.14 13.7127 48.7H19.4877ZM13.7577 47.68C14.0127 46.42 15.0027 45.58 16.2177 45.58C17.4327 45.58 18.3777 46.375 18.3927 47.68H13.7577ZM27.397 40.75V45.775C26.812 44.995 25.792 44.53 24.697 44.53C22.642 44.53 21.082 46.21 21.082 48.355C21.082 50.5 22.642 52.165 24.697 52.165C25.837 52.165 26.902 51.67 27.457 50.845V52H28.552V40.75H27.397ZM27.412 48.355C27.412 50.2 26.182 51.1 24.862 51.1C23.377 51.1 22.267 49.915 22.267 48.34C22.267 46.765 23.377 45.595 24.862 45.595C26.182 45.595 27.412 46.495 27.412 48.355ZM31.0846 52H32.2396V44.695H31.0846V52ZM30.7996 41.905C30.7996 42.385 31.1896 42.745 31.6696 42.745C32.1496 42.745 32.5246 42.385 32.5246 41.905C32.5246 41.44 32.1346 41.065 31.6696 41.065C31.1896 41.065 30.7996 41.44 30.7996 41.905ZM34.686 49.09C34.686 50.935 36.006 52.165 37.716 52.165C39.411 52.165 40.731 50.935 40.731 49.09V44.695H39.576V49.165C39.576 50.32 38.781 51.1 37.716 51.1C36.636 51.1 35.826 50.35 35.826 49.165V44.695H34.686V49.09ZM53.8345 47.41C53.8345 45.67 52.8595 44.53 51.1795 44.53C50.0995 44.53 49.2145 45.025 48.6745 45.79C48.2545 44.995 47.4895 44.53 46.4245 44.53C45.5245 44.53 44.7745 44.86 44.2495 45.46V44.695H43.1695V52H44.3245V47.56C44.3245 46.405 45.0895 45.595 46.1845 45.595C47.2495 45.595 47.9245 46.375 47.9245 47.56V52H49.0795V47.455C49.0795 46.42 49.8595 45.595 50.9545 45.595C52.0345 45.595 52.6795 46.375 52.6795 47.56V52H53.8345V47.41ZM1.365 92H7.23V90.95H2.535V82.1H1.365V92ZM14.3379 87.5C14.3379 85.58 13.2129 84.53 11.4879 84.53C10.2729 84.53 9.17789 85.055 8.51789 86.135L9.28289 86.765C9.88289 85.985 10.5279 85.595 11.4129 85.595C12.5079 85.595 13.1829 86.24 13.1829 87.44V88.07H10.8729C9.29789 88.07 8.24789 88.865 8.24789 90.11C8.24789 91.37 9.29789 92.165 10.7979 92.165C11.8629 92.165 12.7179 91.775 13.2579 91.055V92H14.3379V87.5ZM13.1829 89.195C13.1829 90.32 12.1479 91.205 10.9479 91.205C10.0929 91.205 9.43289 90.785 9.43289 90.05C9.43289 89.375 9.98789 89.015 11.0079 89.015H13.1829V89.195ZM20.6727 84.695C20.4777 84.65 20.2977 84.635 20.1327 84.635C19.2477 84.635 18.3927 85.025 17.8677 85.73V84.695H16.7877V92H17.9427V87.86C17.9427 86.51 19.0077 85.715 20.2377 85.715H20.6727V84.695ZM28.0008 84.695V85.865C27.4458 85.025 26.3808 84.53 25.2258 84.53C23.1708 84.53 21.6408 86.135 21.6408 88.235C21.6408 90.35 23.1708 91.925 25.2258 91.925C26.3208 91.925 27.3558 91.475 27.9408 90.71V91.355C27.9408 92.93 27.0258 93.8 25.5108 93.8C24.4158 93.8 23.6058 93.365 22.7808 92.645L22.1058 93.455C22.9308 94.28 24.1158 94.865 25.5408 94.865C27.7008 94.865 29.0958 93.515 29.0958 91.295V84.695H28.0008ZM27.9558 88.235C27.9558 90.005 26.7408 90.86 25.4058 90.86C23.9208 90.86 22.8108 89.795 22.8108 88.25C22.8108 86.72 23.9208 85.625 25.4058 85.625C26.7258 85.625 27.9558 86.48 27.9558 88.235ZM38.0766 88.7C38.1366 88.4 38.1666 88.115 38.1666 87.83C38.1666 85.895 36.7266 84.53 34.8366 84.53C32.7516 84.53 31.1016 86.24 31.1016 88.355C31.1016 90.5 32.7966 92.165 34.9716 92.165C36.1266 92.165 37.1316 91.685 37.8966 90.89L37.2216 90.11C36.5616 90.77 35.8116 91.1 34.9866 91.1C33.5466 91.1 32.4366 90.14 32.3016 88.7H38.0766ZM32.3466 87.68C32.6016 86.42 33.5916 85.58 34.8066 85.58C36.0216 85.58 36.9666 86.375 36.9816 87.68H32.3466Z" fill="#3D3D3D"/>
</svg>
